<svg width="18" height="19" viewBox="0 0 18 19" fill="none" xmlns="http://www.w3.org/2000/svg">
<path d="M3.58817 7.83617C5.01551 10.6829 7.31512 13.0066 10.1202 14.4652L12.3009 12.2522C12.5685 11.9806 12.965 11.8901 13.3119 12.0108C14.4221 12.383 15.6214 12.5841 16.8505 12.5841C17.3957 12.5841 17.8418 13.0368 17.8418 13.5901V17.1008C17.8418 17.654 17.3957 18.1067 16.8505 18.1067C7.5431 18.1067 0 10.4516 0 1.00593C0 0.452667 0.446044 0 0.991208 0H4.46044C5.0056 0 5.45165 0.452667 5.45165 1.00593C5.45165 2.26334 5.64989 3.47045 6.01664 4.59709C6.12567 4.94916 6.04637 5.34147 5.76883 5.62313L3.58817 7.83617Z" fill="#70B42E"/>
</svg>
